<?xml version="1.0" standalone="no"?>
<!DOCTYPE svg PUBLIC "-//W3C//DTD SVG 20010904//EN"
 "http://www.w3.org/TR/2001/REC-SVG-20010904/DTD/svg10.dtd">
<svg version="1.0" xmlns="http://www.w3.org/2000/svg"
 width="449.000000pt" height="464.000000pt" viewBox="0 0 449.000000 464.000000"
 preserveAspectRatio="xMidYMid meet">

<g transform="translate(0.000000,464.000000) scale(0.100000,-0.100000)"
fill="#000000" stroke="none">
<path d="M2900 4370 c-30 -122 -34 -131 -54 -127 -320 73 -393 81 -649 74
-318 -8 -529 -57 -804 -187 -582 -276 -1002 -841 -1164 -1565 -35 -155 -49
-270 -38 -309 15 -54 47 -72 192 -106 73 -17 252 -61 398 -97 305 -76 305 -76
362 6 44 64 73 90 135 118 70 33 149 34 217 4 61 -27 244 -210 363 -364 43
-56 105 -125 137 -152 153 -131 185 -178 209 -301 18 -91 22 -100 61 -124 40
-25 116 -27 156 -3 41 24 62 84 54 152 l-7 55 24 -17 c38 -29 85 -47 119 -47
24 0 41 10 70 40 78 82 59 162 -61 252 -38 29 -70 55 -70 59 0 4 7 12 15 19
13 11 29 0 104 -78 110 -111 144 -127 214 -93 25 12 53 34 62 48 19 28 24 83
11 124 -7 25 -6 27 60 43 37 9 79 23 95 31 60 31 74 86 39 154 -26 52 -547
561 -597 583 -67 31 -91 25 -287 -77 -204 -105 -256 -122 -326 -105 -64 16
-134 70 -170 132 -42 75 -42 142 3 229 54 108 160 200 405 353 42 26 43 28 26
47 -9 10 -40 30 -68 44 -139 68 -259 34 -584 -164 -74 -44 -152 -86 -175 -92
-55 -15 -127 -6 -312 35 -165 37 -264 71 -272 92 -7 20 48 134 112 230 341
512 1106 775 1778 612 48 -12 87 -25 87 -30 0 -5 -16 -72 -35 -150 -20 -77
-35 -141 -33 -143 3 -2 819 276 826 281 4 2 -459 506 -558 607 l-37 39 -33
-132z"/>
<path d="M2635 3238 c-54 -19 -689 -421 -731 -462 -90 -89 -76 -219 30 -267
80 -36 112 -26 346 116 80 48 168 98 195 111 118 56 156 33 437 -258 131 -136
252 -251 292 -280 127 -89 221 -99 381 -42 55 20 143 51 195 70 52 18 110 34
128 34 l32 0 0 -69 c0 -231 -138 -622 -308 -876 -124 -186 -256 -316 -451
-446 -500 -336 -1145 -377 -1661 -108 -101 53 -418 259 -419 272 -1 4 42 57
95 118 53 60 95 111 93 113 -2 2 -191 27 -419 55 -228 29 -422 55 -431 57 -11
3 14 -93 103 -388 65 -216 122 -406 126 -422 8 -29 8 -28 102 82 51 62 97 112
100 112 4 0 13 -7 20 -15 7 -9 63 -51 124 -94 335 -238 571 -342 926 -408 145
-26 514 -24 670 5 737 135 1291 593 1556 1284 81 212 123 428 131 679 9 278
-25 514 -108 756 -53 154 -78 205 -110 222 -25 14 -43 9 -325 -93 -336 -121
-409 -141 -504 -132 -88 8 -145 38 -275 147 -60 51 -132 102 -160 115 -54 26
-128 30 -180 12z"/>
<path d="M1346 2069 c-92 -22 -156 -108 -164 -218 -4 -64 -3 -70 25 -101 25
-28 38 -34 86 -38 l56 -4 6 -47 c13 -98 36 -122 127 -136 l46 -7 7 -54 c9 -76
34 -101 115 -118 l65 -13 7 -63 c5 -44 14 -70 29 -86 28 -30 88 -47 133 -39
54 11 130 60 161 106 26 37 30 51 30 111 0 66 -2 71 -33 99 -17 16 -59 37 -92
46 l-60 18 0 47 c0 62 -40 110 -111 133 -50 17 -61 30 -73 86 -10 47 -44 78
-104 95 l-57 16 -18 58 c-31 96 -89 131 -181 109z"/>
</g>
</svg>
