<svg version="1.1" id="Layer_1" xmlns="http://www.w3.org/2000/svg" xmlns:xlink="http://www.w3.org/1999/xlink" x="0px" y="0px"
	 width="100%" viewBox="0 0 449 464" enable-background="new 0 0 449 464" xml:space="preserve">
<path fill="#FEFFFE" opacity="1.000000" stroke="none" 
	d="
M250.000000,465.000000 
	C166.689331,465.000000 83.878670,465.000000 1.034000,465.000000 
	C1.034000,310.398315 1.034000,155.796646 1.034000,1.097486 
	C150.560669,1.097486 300.121399,1.097486 449.841064,1.097486 
	C449.841064,155.666534 449.841064,310.333252 449.841064,465.000000 
	C383.463287,465.000000 316.981659,465.000000 250.000000,465.000000 
M293.503021,16.697001 
	C291.461945,24.692444 289.420898,32.687885 287.302246,40.987217 
	C286.136871,40.653030 285.379395,40.427818 284.617523,40.218483 
	C253.838272,31.760870 222.644592,29.542870 191.196732,35.256607 
	C136.191071,45.250549 93.057457,73.909828 61.363670,119.759209 
	C37.739761,153.934418 24.795919,192.211426 19.146322,233.128906 
	C18.028013,241.228302 21.640263,246.089783 29.585199,248.043350 
	C52.317066,253.632797 75.043999,259.242737 97.757309,264.907043 
	C107.893387,267.434784 110.765381,266.515808 116.549622,257.685577 
	C125.403343,244.169418 145.736832,239.500214 158.011398,252.337708 
	C168.010696,262.795593 177.550964,273.692993 187.270462,284.417542 
	C192.174393,289.828552 196.241150,296.404846 202.064255,300.490417 
	C213.651276,308.619995 220.281326,318.955750 221.946136,332.925537 
	C222.757690,339.735474 228.861862,344.074554 235.914200,343.751953 
	C243.592972,343.400696 248.549423,338.791534 248.991867,331.399872 
	C249.171555,328.397949 249.021530,325.376343 249.021530,321.989319 
	C250.805695,323.151459 252.144882,324.098358 253.552979,324.928345 
	C260.595520,329.079498 266.588470,327.782043 271.305176,321.120911 
	C275.544342,315.134186 275.174377,308.701324 269.557343,303.066650 
	C265.603302,299.100220 260.992584,295.788422 255.900970,291.538116 
	C256.862946,290.600739 257.725037,289.760712 259.128876,288.392792 
	C260.137024,289.840912 260.522400,290.621094 261.107422,291.199280 
	C266.195648,296.228088 271.053009,301.537598 276.511322,306.131042 
	C281.536987,310.360382 286.116974,310.040192 291.606262,306.308960 
	C297.049957,302.608704 299.031799,297.668915 297.451324,291.701752 
	C297.127655,290.479614 296.755981,289.270172 296.324341,287.769409 
	C301.293121,286.387817 306.020782,285.433136 310.475494,283.754242 
	C318.050293,280.899414 320.381500,273.693390 316.256226,266.690521 
	C315.167969,264.843170 313.876190,263.037384 312.360474,261.532074 
	C295.924683,245.209396 279.447876,228.927734 262.928650,212.689438 
	C258.562592,208.397629 253.298676,205.911407 247.099274,207.101593 
	C243.907776,207.714340 240.800781,209.146118 237.860123,210.616776 
	C228.201447,215.447220 218.814758,220.859680 208.985550,225.300308 
	C199.007446,229.808212 189.565186,227.007095 181.577606,218.263062 
	C174.265610,210.258575 172.640121,201.720978 178.108948,192.184341 
	C181.690094,185.939468 186.238922,179.901810 191.546051,175.084167 
	C197.899155,169.317017 205.498093,164.914093 212.605301,159.989380 
	C216.090897,157.574127 219.684555,155.314835 223.430206,152.852921 
	C216.977768,145.965744 209.720627,142.544632 200.809967,142.954224 
	C191.239838,143.394135 182.722458,147.122177 174.588440,151.729141 
	C164.896652,157.218414 155.409409,163.067780 145.801819,168.707108 
	C140.319061,171.925308 134.421646,173.487549 128.086212,172.155121 
	C115.260178,169.457672 102.431725,166.754440 89.678368,163.740067 
	C86.264946,162.933289 83.119118,160.994385 79.733856,159.524582 
	C90.463936,132.502136 108.448563,112.530731 132.316589,97.778908 
	C169.399002,74.859833 209.857086,67.100861 252.886795,72.278496 
	C261.337311,73.295319 269.621460,75.694595 278.111969,77.483589 
	C275.463348,88.218285 273.064819,97.939514 270.513031,108.281776 
	C299.007996,98.534645 326.571991,89.105965 354.774139,79.458984 
	C347.337402,71.416328 340.364990,63.858208 333.373077,56.318184 
	C321.136414,43.122280 308.903839,29.922478 296.593231,16.795841 
	C296.024170,16.189043 294.711426,16.279631 293.503021,16.697001 
M394.743713,249.161163 
	C392.164429,260.984253 390.365967,273.042877 386.881744,284.592987 
	C360.125092,373.290710 278.884674,413.711182 207.520233,405.144440 
	C170.733658,400.728516 140.326859,383.487518 111.580627,361.293915 
	C118.016388,353.677612 124.413551,346.106964 131.163513,338.118805 
	C101.406334,334.299622 72.362343,330.571991 42.889809,326.789368 
	C51.499725,355.571564 59.863857,383.532135 68.391434,412.039093 
	C75.160378,404.125854 81.386452,396.847290 87.481117,389.722321 
	C95.558167,395.487244 103.093971,400.947723 110.712624,406.290100 
	C155.135315,437.440308 204.243484,448.996613 257.874023,441.130951 
	C299.681671,434.999237 336.590973,418.074646 367.305542,388.959167 
	C431.371704,328.228546 448.894897,231.879791 414.322113,152.169724 
	C411.083374,144.702606 407.879486,143.409210 400.060242,146.208084 
	C382.248596,152.583710 364.540863,159.257935 346.653412,165.411087 
	C329.438904,171.332703 313.965576,168.527908 300.701935,155.335510 
	C296.596466,151.252090 291.930969,147.625610 287.127136,144.372955 
	C277.726532,138.007858 268.031830,137.587753 258.172882,143.797623 
	C237.770599,156.648438 217.217300,169.260803 196.889862,182.227921 
	C193.330170,184.498688 190.025757,187.632324 187.566940,191.058838 
	C183.776184,196.341476 183.881607,202.393799 187.101105,208.037003 
	C190.227829,213.517578 195.228668,216.723190 201.536819,216.038681 
	C205.674118,215.589752 209.956818,214.088898 213.613708,212.052338 
	C224.648163,205.907181 235.318512,199.111282 246.304153,192.874420 
	C255.222610,187.811157 261.891815,188.629990 269.685577,195.162903 
	C271.725159,196.872498 273.665131,198.716385 275.527496,200.619308 
	C284.386322,209.671127 293.133026,218.833725 302.059631,227.817780 
	C307.573486,233.367111 313.098267,238.948380 319.040833,244.020004 
	C331.004669,254.230438 344.481415,256.237122 359.111237,250.363739 
	C365.734009,247.704926 372.292328,244.842743 379.047119,242.569763 
	C383.954803,240.918335 389.136993,240.082703 394.810211,238.737930 
	C394.810211,242.668274 394.810211,245.461441 394.743713,249.161163 
M173.657974,343.374481 
	C175.074799,348.174286 178.807526,350.147430 183.287430,350.888214 
	C193.353882,352.552673 205.793472,344.625977 208.739059,334.830383 
	C211.675522,325.065155 208.348969,318.306793 198.731827,314.666962 
	C196.277832,313.738190 193.740982,313.028381 190.852875,312.091736 
	C191.798538,301.874878 187.227875,295.839844 177.108521,293.447968 
	C175.157074,292.986694 173.161728,289.579315 172.558212,287.185242 
	C171.211807,281.844299 168.452438,277.368988 163.258713,276.570526 
	C156.803589,275.578125 154.977570,271.676819 153.168747,266.461639 
	C150.512451,258.802979 146.866150,256.635529 139.358292,256.975952 
	C127.358124,257.520142 117.206131,270.014374 118.375870,282.799408 
	C119.035736,290.011566 121.771271,293.011322 129.081467,294.392700 
	C131.307114,294.813293 133.569214,295.040863 135.733719,295.345428 
	C136.997208,308.407227 137.905563,312.145142 151.013763,313.123535 
	C154.345673,313.372253 153.793045,315.755463 153.955933,317.834869 
	C154.650375,326.699829 157.155792,329.451660 165.907379,331.001404 
	C168.140671,331.396881 170.366806,331.832886 172.397507,332.213074 
	C172.723373,336.034210 173.004562,339.331451 173.657974,343.374481 
z"/>
<path fill="#0172D2" opacity="1.000000" stroke="none" 
	d="
M293.624023,16.371210 
	C294.711426,16.279631 296.024170,16.189043 296.593231,16.795841 
	C308.903839,29.922478 321.136414,43.122280 333.373077,56.318184 
	C340.364990,63.858208 347.337402,71.416328 354.774139,79.458984 
	C326.571991,89.105965 299.007996,98.534645 270.513031,108.281776 
	C273.064819,97.939514 275.463348,88.218285 278.111969,77.483589 
	C269.621460,75.694595 261.337311,73.295319 252.886795,72.278496 
	C209.857086,67.100861 169.399002,74.859833 132.316589,97.778908 
	C108.448563,112.530731 90.463936,132.502136 79.733856,159.524582 
	C83.119118,160.994385 86.264946,162.933289 89.678368,163.740067 
	C102.431725,166.754440 115.260178,169.457672 128.086212,172.155121 
	C134.421646,173.487549 140.319061,171.925308 145.801819,168.707108 
	C155.409409,163.067780 164.896652,157.218414 174.588440,151.729141 
	C182.722458,147.122177 191.239838,143.394135 200.809967,142.954224 
	C209.720627,142.544632 216.977768,145.965744 223.430206,152.852921 
	C219.684555,155.314835 216.090897,157.574127 212.605301,159.989380 
	C205.498093,164.914093 197.899155,169.317017 191.546051,175.084167 
	C186.238922,179.901810 181.690094,185.939468 178.108948,192.184341 
	C172.640121,201.720978 174.265610,210.258575 181.577606,218.263062 
	C189.565186,227.007095 199.007446,229.808212 208.985550,225.300308 
	C218.814758,220.859680 228.201447,215.447220 237.860123,210.616776 
	C240.800781,209.146118 243.907776,207.714340 247.099274,207.101593 
	C253.298676,205.911407 258.562592,208.397629 262.928650,212.689438 
	C279.447876,228.927734 295.924683,245.209396 312.360474,261.532074 
	C313.876190,263.037384 315.167969,264.843170 316.256226,266.690521 
	C320.381500,273.693390 318.050293,280.899414 310.475494,283.754242 
	C306.020782,285.433136 301.293121,286.387817 296.324341,287.769409 
	C296.755981,289.270172 297.127655,290.479614 297.451324,291.701752 
	C299.031799,297.668915 297.049957,302.608704 291.606262,306.308960 
	C286.116974,310.040192 281.536987,310.360382 276.511322,306.131042 
	C271.053009,301.537598 266.195648,296.228088 261.107422,291.199280 
	C260.522400,290.621094 260.137024,289.840912 259.128876,288.392792 
	C257.725037,289.760712 256.862946,290.600739 255.900970,291.538116 
	C260.992584,295.788422 265.603302,299.100220 269.557343,303.066650 
	C275.174377,308.701324 275.544342,315.134186 271.305176,321.120911 
	C266.588470,327.782043 260.595520,329.079498 253.552979,324.928345 
	C252.144882,324.098358 250.805695,323.151459 249.021530,321.989319 
	C249.021530,325.376343 249.171555,328.397949 248.991867,331.399872 
	C248.549423,338.791534 243.592972,343.400696 235.914200,343.751953 
	C228.861862,344.074554 222.757690,339.735474 221.946136,332.925537 
	C220.281326,318.955750 213.651276,308.619995 202.064255,300.490417 
	C196.241150,296.404846 192.174393,289.828552 187.270462,284.417542 
	C177.550964,273.692993 168.010696,262.795593 158.011398,252.337708 
	C145.736832,239.500214 125.403343,244.169418 116.549622,257.685577 
	C110.765381,266.515808 107.893387,267.434784 97.757309,264.907043 
	C75.043999,259.242737 52.317066,253.632797 29.585199,248.043350 
	C21.640263,246.089783 18.028013,241.228302 19.146322,233.128906 
	C24.795919,192.211426 37.739761,153.934418 61.363670,119.759209 
	C93.057457,73.909828 136.191071,45.250549 191.196732,35.256607 
	C222.644592,29.542870 253.838272,31.760870 284.617523,40.218483 
	C285.379395,40.427818 286.136871,40.653030 287.302246,40.987217 
	C289.420898,32.687885 291.461945,24.692444 293.624023,16.371210 
z"/>
<path fill="#2EA004" opacity="1.000000" stroke="none" 
	d="
M394.776978,248.707886 
	C394.810211,245.461441 394.810211,242.668274 394.810211,238.737930 
	C389.136993,240.082703 383.954803,240.918335 379.047119,242.569763 
	C372.292328,244.842743 365.734009,247.704926 359.111237,250.363739 
	C344.481415,256.237122 331.004669,254.230438 319.040833,244.020004 
	C313.098267,238.948380 307.573486,233.367111 302.059631,227.817780 
	C293.133026,218.833725 284.386322,209.671127 275.527496,200.619308 
	C273.665131,198.716385 271.725159,196.872498 269.685577,195.162903 
	C261.891815,188.629990 255.222610,187.811157 246.304153,192.874420 
	C235.318512,199.111282 224.648163,205.907181 213.613708,212.052338 
	C209.956818,214.088898 205.674118,215.589752 201.536819,216.038681 
	C195.228668,216.723190 190.227829,213.517578 187.101105,208.037003 
	C183.881607,202.393799 183.776184,196.341476 187.566940,191.058838 
	C190.025757,187.632324 193.330170,184.498688 196.889862,182.227921 
	C217.217300,169.260803 237.770599,156.648438 258.172882,143.797623 
	C268.031830,137.587753 277.726532,138.007858 287.127136,144.372955 
	C291.930969,147.625610 296.596466,151.252090 300.701935,155.335510 
	C313.965576,168.527908 329.438904,171.332703 346.653412,165.411087 
	C364.540863,159.257935 382.248596,152.583710 400.060242,146.208084 
	C407.879486,143.409210 411.083374,144.702606 414.322113,152.169724 
	C448.894897,231.879791 431.371704,328.228546 367.305542,388.959167 
	C336.590973,418.074646 299.681671,434.999237 257.874023,441.130951 
	C204.243484,448.996613 155.135315,437.440308 110.712624,406.290100 
	C103.093971,400.947723 95.558167,395.487244 87.481117,389.722321 
	C81.386452,396.847290 75.160378,404.125854 68.391434,412.039093 
	C59.863857,383.532135 51.499725,355.571564 42.889809,326.789368 
	C72.362343,330.571991 101.406334,334.299622 131.163513,338.118805 
	C124.413551,346.106964 118.016388,353.677612 111.580627,361.293915 
	C140.326859,383.487518 170.733658,400.728516 207.520233,405.144440 
	C278.884674,413.711182 360.125092,373.290710 386.881744,284.592987 
	C390.365967,273.042877 392.164429,260.984253 394.776978,248.707886 
z"/>
<path fill="#2EA105" opacity="1.000000" stroke="none" 
	d="
M173.471863,343.001587 
	C173.004562,339.331451 172.723373,336.034210 172.397507,332.213074 
	C170.366806,331.832886 168.140671,331.396881 165.907379,331.001404 
	C157.155792,329.451660 154.650375,326.699829 153.955933,317.834869 
	C153.793045,315.755463 154.345673,313.372253 151.013763,313.123535 
	C137.905563,312.145142 136.997208,308.407227 135.733719,295.345428 
	C133.569214,295.040863 131.307114,294.813293 129.081467,294.392700 
	C121.771271,293.011322 119.035736,290.011566 118.375870,282.799408 
	C117.206131,270.014374 127.358124,257.520142 139.358292,256.975952 
	C146.866150,256.635529 150.512451,258.802979 153.168747,266.461639 
	C154.977570,271.676819 156.803589,275.578125 163.258713,276.570526 
	C168.452438,277.368988 171.211807,281.844299 172.558212,287.185242 
	C173.161728,289.579315 175.157074,292.986694 177.108521,293.447968 
	C187.227875,295.839844 191.798538,301.874878 190.852875,312.091736 
	C193.740982,313.028381 196.277832,313.738190 198.731827,314.666962 
	C208.348969,318.306793 211.675522,325.065155 208.739059,334.830383 
	C205.793472,344.625977 193.353882,352.552673 183.287430,350.888214 
	C178.807526,350.147430 175.074799,348.174286 173.471863,343.001587 
z"/>
</svg>